<?xml version="1.0" encoding="utf-8"?>
<!-- Generator: Adobe Illustrator 24.0.1, SVG Export Plug-In . SVG Version: 6.00 Build 0)  -->
<svg version="1.1" id="图层_1" xmlns="http://www.w3.org/2000/svg" xmlns:xlink="http://www.w3.org/1999/xlink" x="0px" y="0px"
	 viewBox="0 0 1080 1080" style="enable-background:new 0 0 1080 1080;" xml:space="preserve">
<style type="text/css">
	.st0{fill:#F07084;}
	.st1{fill:#CE345C;}
	.st2{fill:#F4C482;}
	.st3{fill:#FF99AD;}
	.st4{fill:#ED7185;}
	.st5{fill:#F3C57E;}
	.st6{fill:#FA6C8D;}
	.st7{fill:#F4C481;}
</style>
<g>
	<g>
		<g>
			<g>
				<path class="st0" d="M268.9,251.6l0.5,0.3c17.7,10.5,25,31.7,18.8,50.5c0,0.1,0,0.1,0,0.1c-0.9,2.7-2.1,5.4-3.6,7.9
					c-1.5,2.7-3.4,5.2-5.3,7.3c-3.2,2.5-6.4,5.2-9.4,7.8l-0.1,0c-43.4,36.9-81.3,81.6-111.4,133.7c-30.1,52.2-49.9,107.4-60.1,163.4
					l0,0.1c-0.8,4-1.4,8.1-2.1,12.2c0,0.1,0,0.2,0,0.2c-0.9,2.7-2.1,5.4-3.6,8c-1.5,2.5-3.2,4.9-5.1,7c0,0,0,0,0,0.1
					c-13.1,14.8-35.3,19.1-53.1,9l-0.5-0.3c-0.8-0.5-1.6-1-2.4-1.6c-0.8-0.4-1.4-1-2.2-1.6c-2.1-1.6-4-3.3-5.7-5.1
					c-0.4-0.4-0.9-0.9-1.2-1.4c-0.3-0.2-0.5-0.4-0.6-0.7c-8.5-9.7-13-23-11.5-36.9c7.3-68.6,28.7-136.7,65.4-200.3
					c36.7-63.5,84.9-116.1,140.7-156.7c11.4-8.3,25.1-11,37.7-8.5c0.3-0.1,0.6,0,0.9,0.2c0.6,0,1.3,0.2,1.8,0.3
					c2.5,0.6,4.9,1.4,7.3,2.4c0.9,0.4,1.7,0.7,2.5,1.1C267.3,250.6,268.1,251.1,268.9,251.6z"/>
				<path class="st1" d="M55.1,674.6c-8.8,0-17.6-2.2-25.6-6.7c-1.6-0.9-3.1-1.7-4.6-3.1c-4.2-3-6.4-5-8.5-7.2l-1.2-1.3
					c-0.6-0.6-1.2-1.3-1.7-2c-10.1-12-14.8-27.8-13.2-43.5C8,538.6,30.4,469.9,67,406.6c36.5-63.3,84.8-117,143.4-159.7
					c12.5-9.1,28.2-12.9,43.2-10.6l1.9-0.4l2.2,1.1c0.4,0.1,0.7,0.2,1,0.2c3.2,0.8,6.2,1.7,9.2,3c1.7,0.8,2.6,1.1,3.4,1.6
					c-0.2-0.2,1.2,0.5,2.5,1.2l0.8,0.5c21.1,12.5,30.8,38.6,23,62l-0.9,2.3c-1,2.5-2.2,5-3.5,7.4c-1.9,3.3-4.2,6.4-6.6,9.1
					c-4.3,3.5-7.3,6.1-10.3,8.6l-1.9,1.5c-43,36.8-79.1,80.4-107.6,129.7c-28.5,49.4-48.2,102.6-58.6,158.2l-2.1,12.2l0.9,3.4
					l-2.4,2.5c-1,2.6-2.2,5.2-3.6,7.7c-1.6,2.7-3.4,5.2-5.3,7.6l-0.9,1.1C84.4,668.4,69.8,674.6,55.1,674.6z M30.6,644.4
					c1.3,1.1,2.7,2.5,4.4,3.8l2.8,1.9c14.5,8.2,31.5,5.4,41.9-5.9l0.4-0.4c1.5-1.7,2.9-3.6,4-5.6c1.1-1.8,1.9-3.6,2.5-5.5l2-11.8
					c10.7-58.6,31.3-114.6,61.3-166.5c29.9-51.9,68.1-97.7,113.5-136.3l1.8-1.5c2.6-2.2,5.3-4.4,8-6.6c0.3-0.5,1.7-2.5,2.9-4.6
					c1.1-1.9,2-4.1,2.7-6.1l0.5-1.6c4-14.3-2.1-29.9-15-37.5l4.4-8.7l-4.9,8.5l-2.5-1.3c-3.4-1.5-5.3-2-7.2-2.5l-3.5-0.6
					c-10.1-1.6-20.6,0.9-28.9,7c-56.4,41.1-102.9,92.8-138,153.7c-35.2,61-56.7,127-64.1,196.4c-1.1,10.7,2,21,8.8,29.1L30.6,644.4z
					"/>
			</g>
			<g>
				<path class="st2" d="M446.8,577.2l-84-145.5c-0.5,0.7-1,1.5-1.5,2.2c-17.4,23.1-50.1,27.7-73.2,10.4
					c-23.1-17.3-27.7-50.1-10.4-73.2c9.5-12.6,23.6-19.7,38.2-20.7l-27.7-47.9c-0.9,2.7-2.1,5.4-3.6,7.9c-1.5,2.7-3.4,5.2-5.3,7.3
					c-3.2,2.5-6.4,5.2-9.4,7.8l-0.1,0c-43.4,36.9-81.3,81.6-111.4,133.7c-30.1,52.2-49.9,107.4-60.1,163.4l0,0.1
					c-0.8,4-1.4,8.1-2.1,12.2c0,0.1,0,0.2,0,0.2c-0.9,2.7-2.1,5.4-3.6,8c-1.5,2.5-3.2,4.9-5.1,7l317.2,0
					C442.1,650.3,465.6,609.7,446.8,577.2z"/>
				<path class="st1" d="M404.7,660.1c0,0-0.1,0-0.1,0H65.9l14.2-16.2c1.5-1.7,2.9-3.6,4-5.6c1.1-1.8,1.9-3.6,2.5-5.5l1.6-9.5l0-0.1
					l0.4-2.2c10.7-58.6,31.3-114.6,61.3-166.5c29.9-51.9,68.1-97.7,113.5-136.3l1.8-1.5c2.6-2.2,5.3-4.4,8-6.6
					c0.3-0.5,1.7-2.5,2.9-4.6c1.1-1.9,2-4.1,2.7-6.1l6.8-20.7l46.4,80.3l-15.6,1.1c-12.4,0.9-23.7,7-31.1,16.8
					c-14.1,18.7-10.3,45.4,8.5,59.5c9.1,6.8,20.3,9.6,31.5,8.1c11.2-1.6,21.2-7.5,28-16.5l8.9-11.8l8.9,10.6l84,145.5
					c10.6,18.3,10.6,40.2,0,58.5C444.7,649.2,425.8,660.1,404.7,660.1z M104.6,640.5h300.1c0,0,0.1,0,0.1,0c14,0,26.6-7.3,33.7-19.5
					c7.1-12.2,7.1-26.8,0-39l-77.1-133.6c-9.1,8.3-20.5,13.7-33,15.5c-16.5,2.3-32.8-1.9-46-11.8c-13.3-10-21.8-24.5-24.2-40.9
					c-2.3-16.4,1.9-32.7,11.8-46c7.8-10.4,18.5-17.9,30.7-21.8l-12.2-21.2c-0.6,0.7-1.2,1.4-1.8,2.1c-4.3,3.5-7.3,6.1-10.3,8.6
					l-1.9,1.5c-43,36.8-79.1,80.4-107.6,129.7c-28.5,49.4-48.2,102.6-58.6,158.2l-2.1,12.2l0.9,3.4L104.6,640.5
					C104.6,640.5,104.6,640.5,104.6,640.5z"/>
			</g>
			<g>
				<path class="st0" d="M277.7,371.1c-17.3,23.1-12.7,55.9,10.4,73.2c23.1,17.3,55.9,12.7,73.2-10.4c0.5-0.7,1-1.5,1.5-2.2
					l-46.9-81.3C301.3,351.4,287.2,358.5,277.7,371.1z"/>
				<path class="st1" d="M319.4,464.6c-13.3,0-26.3-4.3-37.2-12.4c-13.3-10-21.8-24.5-24.2-40.9c-2.3-16.4,1.9-32.7,11.8-46l0,0
					c10.8-14.4,27.3-23.3,45.3-24.6l6.1-0.4l53.1,91.9l-5.3,7.7c-9.9,13.2-24.5,21.8-40.9,24.1C325.3,464.4,322.3,464.6,319.4,464.6
					z M310.7,361c-10.1,2.1-19,7.8-25.2,16l0,0c-6.8,9.1-9.7,20.3-8.1,31.5c1.6,11.2,7.5,21.2,16.6,28c9.1,6.8,20.3,9.6,31.5,8.1
					c10-1.4,19-6.2,25.6-13.7L310.7,361z"/>
			</g>
			<g>
				<circle class="st0" cx="218.1" cy="572.8" r="52.3"/>
				<path class="st1" d="M218.2,634.9c-34.2,0-62.1-27.9-62.1-62.1c0-34.2,27.9-62.1,62.1-62.1s62.1,27.8,62.1,62.1
					C280.2,607,252.4,634.9,218.2,634.9z M218.2,530.3c-23.4,0-42.5,19.1-42.5,42.5c0,23.4,19.1,42.6,42.5,42.6s42.5-19.1,42.5-42.6
					C260.7,549.4,241.6,530.3,218.2,530.3z"/>
			</g>
		</g>
		<g>
			<g>
				<path class="st3" d="M33.7,630.4c-0.5,0-0.9,0-1.4-0.1c-5.3-0.8-9.1-5.8-8.3-11.1l1.3-8.6c0.9-5.3,5.7-9.1,11.3-8
					c5.3,0.9,8.9,5.9,8,11.3l-1.3,8.1C42.7,626.9,38.5,630.4,33.7,630.4z"/>
			</g>
			<g>
				<path class="st3" d="M37.9,602.2c-0.6,0-1.2-0.1-1.8-0.2c-5.3-1-8.8-6-7.8-11.4c5-27.4,12.3-54.4,21.6-80.5
					c1.9-5.1,7.5-7.7,12.5-5.9c5.1,1.8,7.7,7.4,5.9,12.5c-9,25.1-16,51.1-20.8,77.4C46.6,598.9,42.5,602.2,37.9,602.2z"/>
			</g>
		</g>
		<g>
			<g>
				<path class="st4" d="M783.4,244v0.7c-0.2,21.3-15.5,39-35.7,43.1c-0.1,0-0.1,0-0.1,0c-2.9,0.6-5.9,0.9-9,0.9
					c-3.2,0-6.4-0.3-9.4-1c-3.9-1.6-8-3-11.9-4.4l-0.1-0.1c-55.7-19.9-115.6-30.8-178.1-30.8c-62.6,0-122.5,10.9-178.2,30.8
					l-0.1,0.1c-4,1.4-8,3-12,4.4c-0.1,0.1-0.2,0.1-0.2,0.1c-3,0.6-5.9,0.9-9,0.9c-3,0-6.1-0.3-9-0.9c0,0,0,0-0.1,0
					c-20.2-4.1-35.5-21.8-35.7-43.1V244c0-1,0-2,0.2-3c0-0.9,0.2-1.8,0.2-2.8c0.3-2.7,0.9-5.3,1.6-7.8c0.2-0.6,0.3-1.2,0.7-1.8
					c0-0.3,0.1-0.7,0.3-0.9c4.4-12.7,13.9-23.6,27.2-29.5c65.5-29,137.8-45.2,214-45.2c76.2,0,148.5,16.1,214,45.2
					c13.3,5.9,22.9,16.9,27.2,29.5c0.2,0.2,0.3,0.6,0.3,0.9c0.3,0.6,0.5,1.2,0.7,1.8c0.7,2.6,1.3,5.1,1.6,7.8c0.1,1,0.2,1.9,0.2,2.8
					C783.4,242,783.4,243,783.4,244z"/>
				<path class="st1" d="M738.7,298.4c-4,0-7.9-0.4-11.5-1.2c-5.3-2-9.2-3.4-13-4.8l-3.1-1.2c-110.7-38.8-234.1-38.6-344.6,0.3
					l-2.2,0.9l-11.2,5l-4.3,0.1c-3.3,1-12.7,1.3-20-0.2c-25-5.1-43.3-27.2-43.6-52.5c0-2.3,0.1-3.8,0.3-5.3l9.9-1.2l-9.7-1.3
					c0.4-3.2,1.1-6.2,1.9-9.2l0.6-1.8c0.2-0.9,0.5-1.7,0.9-2.5c5.6-15.2,17.2-27.6,32.1-34.2c68.8-30.5,142.1-46,218-46
					c75.8,0,149.1,15.5,217.9,46c14.6,6.5,26.1,18.6,31.8,33.4l1.2,1.4l0.2,2.3c0.2,0.5,0.3,0.9,0.4,1.3c0.9,3.1,1.5,6.1,2,9.3
					c0.2,2.5,0.3,3.3,0.3,4.1l0,0c0.2,0,0.2,1.5,0.2,3v0.7c-0.2,25.5-18.5,47.6-43.5,52.7C746.1,298,742.3,298.4,738.7,298.4z
					 M723.7,275.1c3.1,1.1,6.2,2.3,9.2,3.5c1.4,0.1,7.9,0.5,12.7-0.4c16.1-3.3,27.9-17.4,28-33.6l9.8-0.6h-9.8l-0.1-1.4l9.4-4.4
					l-9.7,1.3c-0.3-2.2-0.8-4.3-1.3-6.4l-1.2-2.2l0.1-0.9c-3.8-10.2-11.6-18.5-21.7-22.9c-66.3-29.4-137-44.3-210-44.3
					c-73.1,0-143.8,14.9-210.1,44.3c-10.1,4.5-18,12.9-21.7,23.2l-1.2,3c-0.4,1.9-0.9,4-1.2,6.2l-0.3,3.1
					c0.2,18.2,11.9,32.3,27.8,35.6c4.7,0.9,9.2,0.9,13.6,0.1l11.7-4.4c116.3-41.5,246.5-41.5,362.8,0L723.7,275.1z"/>
			</g>
			<g>
				<path class="st5" d="M622.9,355.2c6.6-29.2,35.7-47.6,65-41c13.5,3.1,24.7,11,32.2,21.5l27.7-48c-2.9,0.6-5.9,0.9-9,0.9
					c-3.2,0-6.4-0.3-9.4-1c-3.9-1.6-8-3-11.9-4.4l-0.1-0.1c-55.7-19.9-115.6-30.8-178.1-30.8c-62.6,0-122.5,10.9-178.2,30.8
					l-0.1,0.1c-4,1.4-8,3-12,4.4c-0.1,0.1-0.2,0.1-0.2,0.1c-3,0.6-5.9,0.9-9,0.9c-3,0-6.1-0.3-9-0.9L495.4,573
					c19.4,33.7,68.2,33.7,87.6,0l87.6-151.8c-2.3-0.2-4.5-0.5-6.8-1C634.6,413.5,616.2,384.5,622.9,355.2z"/>
				<path class="st1" d="M539.2,608.1c-21.9,0-41.4-11.3-52.3-30.2L311.3,273.8l21.3,4.4c4.5,0.9,9.1,0.9,13.5,0.1l11.6-4.4
					c116.3-41.5,246.5-41.5,362.8,0l3.1,1.2c3.1,1.1,6.2,2.3,9.2,3.5c1.4,0.1,7.9,0.5,12.7-0.4l21.4-4.4l-46.2,80.1l-8.8-12.4
					c-6.3-8.9-15.7-15.2-26.3-17.6c-23.9-5.6-47.9,9.7-53.3,33.6l0,0c-5.4,24,9.6,47.9,33.6,53.3c1.9,0.4,3.8,0.7,5.7,0.9l14.9,1.6
					l-95.2,164.8C580.6,596.8,561,608.1,539.2,608.1C539.2,608.1,539.2,608.1,539.2,608.1z M347.8,297.8l156.1,270.4
					c7.4,12.8,20.6,20.4,35.4,20.4s28-7.6,35.3-20.4L655.4,428c-30.8-10.3-49.5-42.6-42.1-74.9l0,0c7.8-34.5,42.4-56.1,76.7-48.3
					c10.6,2.4,20.2,7.4,28.2,14.5l12.3-21.4c-1.1-0.2-2.3-0.4-3.3-0.6c-5.3-2-9.2-3.4-13-4.8l-3.1-1.2
					c-110.7-38.8-234.1-38.6-344.6,0.3l-2.2,0.9l-11.2,5l-4.3,0.1C348.4,297.6,348.1,297.7,347.8,297.8z"/>
			</g>
			<g>
				<path class="st0" d="M687.8,314.2c-29.2-6.6-58.3,11.7-65,41c-6.6,29.2,11.7,58.3,41,65c2.3,0.5,4.5,0.8,6.8,1l49.4-85.5
					C712.5,325.2,701.4,317.3,687.8,314.2z"/>
				<path class="st1" d="M675.9,431.6l-6.3-0.7c-2.6-0.3-5.3-0.6-7.9-1.2c-34.5-7.8-56.2-42.2-48.4-76.7
					c7.8-34.5,42.4-56.1,76.7-48.3l0,0c15.4,3.5,28.8,12.5,37.9,25.3l3.6,5.1L675.9,431.6z M675.8,322.7c-20.3,0-38.7,14-43.4,34.7
					c-5.4,23.8,9.4,47.5,33.1,53.2l42.6-73.9c-6-6.4-13.8-10.9-22.5-12.9C682.4,323,679.1,322.7,675.8,322.7z"/>
			</g>
			<g>
				<circle class="st0" cx="465.4" cy="344.9" r="54.3"/>
				<path class="st1" d="M465.5,409c-24.1,0-47.2-13.6-58.1-36.7c-15.1-32-1.3-70.2,30.6-85.3c32-15.1,70.2-1.3,85.3,30.6
					c15.1,32,1.3,70.2-30.6,85.3h0C483.9,407,474.6,409,465.5,409z M465.3,300.4c-6.4,0-12.8,1.3-18.9,4.2
					c-22.2,10.5-31.8,37.1-21.3,59.3c10.5,22.2,37.1,31.8,59.3,21.3c22.2-10.5,31.7-37.1,21.3-59.3
					C498.1,309.8,482,300.4,465.3,300.4z"/>
			</g>
		</g>
		<g>
			<circle class="st0" cx="539.2" cy="480.3" r="28.6"/>
			<path class="st1" d="M539.2,518.6c-14.4,0-28.2-8.1-34.8-22c-4.4-9.3-4.9-19.7-1.4-29.4c3.4-9.6,10.5-17.4,19.8-21.7
				c9.2-4.4,19.7-4.9,29.3-1.4c9.6,3.4,17.4,10.5,21.7,19.7c4.4,9.3,4.9,19.7,1.4,29.4c-3.5,9.6-10.5,17.4-19.8,21.7l0,0
				C550.3,517.5,544.7,518.6,539.2,518.6z M539.2,461.4c-2.7,0-5.5,0.6-8,1.8c-9.4,4.4-13.4,15.7-9,25.1c4.4,9.4,15.7,13.5,25.1,9
				l0,0c4.6-2.2,8-5.9,9.7-10.7c1.7-4.7,1.5-9.9-0.7-14.4c-2.2-4.6-5.9-8-10.7-9.7C543.5,461.8,541.3,461.4,539.2,461.4z"/>
		</g>
		<g>
			<circle class="st0" cx="365.9" cy="567.2" r="27.6"/>
			<path class="st1" d="M366,604.6c-4.2,0-8.5-0.8-12.6-2.2c-9.4-3.3-16.9-10.2-21.2-19.2c-8.8-18.6-0.8-40.9,17.8-49.7
				c18.7-8.8,40.9-0.8,49.7,17.8c4.3,9,4.7,19.2,1.4,28.6c-3.4,9.4-10.2,16.9-19.2,21.1l0,0C376.8,603.4,371.4,604.6,366,604.6z
				 M365.9,549.4c-2.5,0-5.1,0.5-7.5,1.7c-8.9,4.2-12.7,14.8-8.5,23.7c2,4.3,5.6,7.5,10.1,9.1c4.6,1.7,9.3,1.3,13.5-0.6h0.1
				c4.3-2,7.5-5.6,9.1-10.1c1.6-4.5,1.4-9.3-0.6-13.6C379,553.2,372.6,549.4,365.9,549.4z"/>
		</g>
		<g>
			<g>
				<path class="st6" d="M811.1,251.6l-0.5,0.3c-17.7,10.5-25,31.7-18.8,50.5c0,0.1,0,0.1,0,0.1c0.9,2.7,2.1,5.4,3.6,7.9
					c1.5,2.7,3.4,5.2,5.3,7.3c3.2,2.5,6.4,5.2,9.4,7.8l0.1,0c43.4,36.9,81.3,81.6,111.4,133.7c30.1,52.2,49.9,107.4,60.1,163.4
					l0,0.1c0.8,4,1.4,8.1,2.1,12.2c0,0.1,0,0.2,0,0.2c0.9,2.7,2.1,5.4,3.6,8c1.5,2.5,3.2,4.9,5.1,7c0,0,0,0,0,0.1
					c13.1,14.8,35.3,19.1,53.1,9l0.5-0.3c0.8-0.5,1.6-1,2.4-1.6c0.8-0.4,1.4-1,2.2-1.6c2.1-1.6,4-3.3,5.7-5.1
					c0.4-0.4,0.9-0.9,1.2-1.4c0.3-0.2,0.5-0.4,0.6-0.7c8.5-9.7,13-23,11.5-36.9c-7.3-68.6-28.7-136.7-65.4-200.3
					c-36.7-63.5-84.9-116.1-140.7-156.7c-11.4-8.3-25.1-11-37.7-8.5c-0.3-0.1-0.6,0-0.9,0.2c-0.6,0-1.3,0.2-1.8,0.3
					c-2.5,0.6-4.9,1.4-7.3,2.4c-0.9,0.4-1.7,0.7-2.5,1.1C812.7,250.6,811.9,251.1,811.1,251.6z"/>
				<path class="st1" d="M1024.9,674.6c-14.8,0-29.4-6.1-39.6-17.7c-2.4-2.8-4.5-5.7-6.3-8.7c-1.8-3.1-3.2-6.3-4.4-9.6l-2.5-13.8
					c-10.3-56.5-30.1-110.4-59-160.4c-28.4-49.3-64.6-92.9-107.5-129.7h-0.1l-1.8-1.5c-3-2.6-6.1-5.1-9.2-7.6
					c-3.6-3.7-5.9-6.9-7.8-10.2c-1.7-2.8-3.2-6.1-4.4-9.6l-0.5-1.7c-6.9-23,2.8-48.2,23.6-60.4l5.5,8.1l-5-8.4
					c1.3-0.8,2.7-1.5,4.1-2.1c5-2.2,7.9-3.2,10.9-3.9l1.6-0.3c0.9-0.2,1.8-0.4,2.7-0.5c15.1-2.5,31.4,1,44.3,10.4
					c58.7,42.8,106.9,96.5,143.3,159.7c36.5,63.2,59,131.8,66.7,204.1c1.6,15.1-2.8,30.3-12,42.2l-0.3,1.8l-2.7,1.8
					c-0.4,0.5-0.8,0.9-1.1,1.1c-2,2.1-4.1,4.1-6.6,6c-1.9,1.3-2.6,1.8-3.3,2.2c0.2,0.1-1.2,1-2.9,1.8
					C1042.6,672.3,1033.7,674.6,1024.9,674.6z M815,316.9l1.6,1.3c45.4,38.6,83.6,84.4,113.5,136.3c30,52,50.7,108,61.3,166.6
					l2.1,12.3c0.4,0.9,1.3,3,2.5,5s2.6,3.9,4,5.7c10.2,11.4,27.5,14.3,41,6.8l2.9-1.8c2.5-1.9,4-3.3,5.3-4.6l2.5-2.9
					c6.5-7.9,9.6-18.4,8.6-28.8c-7.4-69.5-29-135.5-64.2-196.4c-35.1-60.8-81.5-112.6-138-153.7c-8.5-6.2-19.2-8.7-29.4-6.9
					l-2.9,0.6l-0.6-0.1c-1.5,0.5-3.3,1.1-5.2,1.9l-4.4,2.2c-13.4,7.9-19.5,24.3-14.5,39l0.3,0.9c0.7,1.9,1.5,3.6,2.4,5.1
					c1.2,2.2,2.6,4.1,4.1,5.7C809.7,312.5,812.3,314.6,815,316.9z"/>
			</g>
			<g>
				<path class="st7" d="M849.1,563.1c27.6-8.5,56.9,7,65.4,34.6c5.9,19.3,0.2,39.3-13.2,52.6l91.4,0c-1.9-2.1-3.6-4.5-5.1-7
					c-1.5-2.6-2.7-5.2-3.6-8c0-0.1-0.1-0.1,0-0.2c-0.7-4.1-1.3-8.1-2.1-12.2l0-0.1c-10.2-56-30-111.2-60.1-163.4
					c-30.1-52.1-68-96.9-111.4-133.7l-0.1,0c-3.1-2.6-6.2-5.3-9.4-7.8c-2-2.2-3.8-4.7-5.3-7.3c-1.5-2.5-2.7-5.2-3.6-7.9L633.2,577.2
					c-18.8,32.4,4.7,73.1,42.2,73.1l152.3,0c-5.9-5.9-10.6-13.2-13.2-21.8C806,600.9,821.5,571.6,849.1,563.1z"/>
				<path class="st1" d="M675.3,660.1c-21.1,0-40-10.9-50.6-29.2c-10.6-18.4-10.6-40.3,0.1-58.5l169.4-293.4l7,20.4
					c0.8,2.2,1.7,4.3,2.7,6.1c1.2,2.2,2.6,4.1,4.1,5.7c1.8,1.3,4.4,3.4,7.1,5.7l1.6,1.3c45.4,38.6,83.6,84.4,113.5,136.3
					c30,52,50.7,108,61.3,166.6l2.1,12.3c0.4,0.9,1.3,3,2.5,5s2.6,3.9,4,5.7l13.7,16.1H877.4l17-16.7c11.3-11.2,15.4-27.6,10.8-42.8
					c-7-22.4-30.9-34.9-53.2-28.1c-22.4,7-35,30.8-28.1,53.2c2.1,6.6,5.8,12.8,10.8,17.7l16.9,16.7H675.4
					C675.3,660.1,675.3,660.1,675.3,660.1z M791.7,322.2l-150.1,260c-7.1,12.2-7.1,26.7,0,38.9c7,12.2,19.6,19.5,33.7,19.5
					c0,0,0,0,0.1,0h133.4c-1.5-3-2.6-6-3.6-9.1c-10.1-32.8,8.3-67.6,41.1-77.7l0,0c32.8-10.2,67.5,8.4,77.5,41.1
					c4.8,15.4,3.3,31.7-3.6,45.7h55.3c-0.3-0.7-0.5-1.3-0.8-2l-2.5-13.8c-10.3-56.5-30.1-110.4-59-160.4
					c-28.4-49.3-64.6-92.9-107.5-129.7h-0.1l-1.8-1.5c-3-2.6-6.1-5.1-9.2-7.6C793.6,324.3,792.6,323.2,791.7,322.2z"/>
			</g>
			<g>
				<path class="st0" d="M914.4,597.7c-8.5-27.6-37.8-43.1-65.4-34.6c-27.6,8.5-43.1,37.8-34.6,65.4c2.6,8.5,7.3,15.9,13.2,21.8
					l73.5,0C914.6,637,920.4,617,914.4,597.7z"/>
				<path class="st1" d="M905.2,660.1h-81.5l-2.9-2.8c-7.2-7.2-12.6-16.1-15.6-25.8c-10.1-32.8,8.3-67.6,41.1-77.7
					c32.8-10.2,67.5,8.4,77.5,41.1l0,0c6.8,22.1,0.8,46.1-15.7,62.4L905.2,660.1z M831.9,640.5h65c9.3-11,12.4-26,8.2-40l0,0
					c-7-22.4-30.9-34.9-53.2-28.1c-22.4,7-35,30.8-28.1,53.2C825.5,631.1,828.3,636.2,831.9,640.5z"/>
			</g>
			<g>
				<circle class="st0" cx="802.6" cy="451.2" r="52.3"/>
				<path class="st1" d="M802.5,513.3c-14.8,0-29-5.3-40.4-15c-12.6-10.8-20.2-25.9-21.4-42.4c-1.2-16.5,4-32.6,14.9-45.1
					c10.8-12.6,25.8-20.2,42.4-21.4c16.4-1.1,32.6,4,45.1,14.8c12.6,10.8,20.2,25.9,21.4,42.4c1.2,16.5-4,32.6-14.9,45.1
					c-10.8,12.6-25.8,20.2-42.3,21.4C805.7,513.3,804.1,513.3,802.5,513.3z M802.7,408.7c-1.1,0-2.2,0.1-3.2,0.1
					c-11.3,0.8-21.6,6-29,14.6c-7.4,8.6-11,19.6-10.2,30.9c0.9,11.3,6.1,21.6,14.7,29c8.6,7.4,19.7,10.9,30.9,10.2
					c11.3-0.9,21.6-6.1,29-14.7c7.4-8.6,11-19.6,10.2-30.9c-0.9-11.3-6.1-21.7-14.7-29.1C822.6,412.3,812.9,408.7,802.7,408.7z"/>
			</g>
			<g>
				<circle class="st0" cx="802.6" cy="451.2" r="52.3"/>
				<path class="st1" d="M802.5,513.3c-14.8,0-29-5.3-40.4-15c-12.6-10.8-20.2-25.9-21.4-42.4c-1.2-16.5,4-32.6,14.9-45.1
					c10.8-12.6,25.8-20.2,42.4-21.4c16.4-1.1,32.6,4,45.1,14.8c12.6,10.8,20.2,25.9,21.4,42.4c1.2,16.5-4,32.6-14.9,45.1
					c-10.8,12.6-25.8,20.2-42.3,21.4C805.7,513.3,804.1,513.3,802.5,513.3z M802.7,408.7c-1.1,0-2.2,0.1-3.2,0.1
					c-11.3,0.8-21.6,6-29,14.6c-7.4,8.6-11,19.6-10.2,30.9c0.9,11.3,6.1,21.6,14.7,29c8.6,7.4,19.7,10.9,30.9,10.2
					c11.3-0.9,21.6-6.1,29-14.7c7.4-8.6,11-19.6,10.2-30.9c-0.9-11.3-6.1-21.7-14.7-29.1C822.6,412.3,812.9,408.7,802.7,408.7z"/>
			</g>
		</g>
		<g>
			<circle class="st0" cx="712.4" cy="578" r="27.6"/>
			<path class="st1" d="M712.5,615.3c-14.1,0-27.5-7.9-33.9-21.4c-8.8-18.6-0.8-41,17.9-49.7c8.9-4.3,19.1-4.8,28.5-1.4
				c9.4,3.4,16.9,10.2,21.1,19.2c4.3,8.9,4.7,19.1,1.4,28.5c-3.4,9.4-10.2,16.9-19.2,21.2h-0.1C723.2,614.2,717.8,615.3,712.5,615.3
				z M712.4,560.2c-2.6,0-5.2,0.5-7.6,1.7c-8.8,4.2-12.7,14.8-8.5,23.7c4.3,8.8,14.9,12.7,23.7,8.5c4.3-2,7.5-5.7,9.1-10.1
				c1.6-4.5,1.4-9.3-0.6-13.5c-2-4.3-5.6-7.6-10.1-9.2C716.5,560.5,714.4,560.2,712.4,560.2z"/>
		</g>
		<g>
			<g>
				<path class="st3" d="M332.1,230.6c-3.8,0-7.5-2.3-9-6.1c-2.1-5,0.3-10.7,5.3-12.7l8-3.3c5-1.9,10.7,0.5,12.7,5.6
					c2,5-0.5,10.7-5.6,12.7l-7.7,3.1C334.6,230.4,333.3,230.6,332.1,230.6z"/>
			</g>
			<g>
				<path class="st3" d="M358.4,219.8c-4,0-7.7-2.5-9.2-6.4c-1.9-5.1,0.7-10.7,5.8-12.6c26-9.6,53-17.2,80.2-22.6
					c5.4-1.2,10.4,2.4,11.5,7.7c1,5.3-2.4,10.5-7.7,11.5c-26.2,5.1-52.2,12.4-77.2,21.7C360.7,219.6,359.6,219.8,358.4,219.8z"/>
			</g>
		</g>
		<g>
			<g>
				<path class="st3" d="M857.8,289.3c-2,0-4.1-0.6-5.9-2l-6.7-5.1c-4.3-3.2-5.2-9.3-1.9-13.7c3.3-4.3,9.4-5.1,13.7-1.9l6.8,5.1
					c4.3,3.3,5.1,9.4,1.8,13.7C863.6,288,860.7,289.3,857.8,289.3z"/>
			</g>
			<g>
				<path class="st3" d="M933.2,357.4c-2.7,0-5.3-1.1-7.3-3.2c-17.8-19.9-37.5-38.4-58.3-55.1c-4.2-3.4-4.9-9.5-1.5-13.7
					c3.3-4.2,9.5-4.9,13.7-1.5c21.6,17.4,41.9,36.6,60.5,57.2c3.6,4,3.3,10.2-0.8,13.8C937.9,356.6,935.5,357.4,933.2,357.4z"/>
			</g>
		</g>
	</g>
	<g>
		<g>
			<path d="M122.4,844.6c-1.5,0.4-3.9,0.8-7.2,1.2c-3.3,0.4-6.5,0.6-9.7,0.6c-3.2,0-6-0.2-8.4-0.7c-2.4-0.5-4.5-1.3-6.1-2.6
				c-1.7-1.2-2.9-3-3.7-5.2c-0.8-2.2-1.2-5.1-1.2-8.7v-32.4H46.1v47.8c-1.5,0.4-3.9,0.8-7.2,1.2c-3.3,0.4-6.5,0.6-9.7,0.6
				c-3.2,0-6-0.2-8.4-0.7c-2.4-0.5-4.5-1.3-6.1-2.6c-1.7-1.2-2.9-3-3.7-5.2c-0.8-2.2-1.2-5.1-1.2-8.7V719.6c1.5-0.3,3.9-0.7,7.3-1.1
				c3.3-0.5,6.5-0.7,9.6-0.7c3.2,0,6,0.2,8.4,0.7c2.4,0.5,4.5,1.3,6.1,2.6c1.7,1.2,2.9,3,3.7,5.2c0.8,2.2,1.2,5.1,1.2,8.7v33.2H86
				v-48.6c1.5-0.3,3.9-0.7,7.3-1.1c3.3-0.5,6.5-0.7,9.6-0.7c3.2,0,6,0.2,8.4,0.7c2.4,0.5,4.5,1.3,6.1,2.6s2.9,3,3.7,5.2
				c0.8,2.2,1.2,5.1,1.2,8.7V844.6z"/>
		</g>
		<g>
			<path d="M176.2,723.3c2.4-1.4,5.9-2.7,10.7-3.9c4.8-1.2,9.6-1.9,14.4-1.9c6.9,0,13.1,1,18.4,3c5.3,2,8.8,5.2,10.3,9.5
				c2.5,7.2,5.2,15.6,8.1,25.1c2.9,9.6,5.8,19.4,8.7,29.6c2.9,10.2,5.7,20.2,8.5,30.1c2.8,9.9,5.2,18.7,7.3,26.3
				c-1.7,1.9-4.2,3.5-7.5,4.7c-3.3,1.2-7.3,1.8-11.8,1.8c-3.3,0-6.1-0.3-8.4-0.8c-2.3-0.6-4.2-1.4-5.6-2.5c-1.5-1.1-2.6-2.6-3.5-4.4
				c-0.9-1.8-1.7-3.9-2.4-6.2l-3.7-14.3H182c-1.1,4.2-2.2,8.5-3.3,12.9c-1.1,4.4-2.2,8.7-3.3,12.9c-1.9,0.7-4,1.3-6.1,1.8
				c-2.1,0.5-4.7,0.7-7.8,0.7c-7.1,0-12.3-1.2-15.7-3.6c-3.4-2.4-5.1-5.8-5.1-10.1c0-1.9,0.3-3.9,0.8-5.8c0.5-1.9,1.2-4.2,1.9-6.9
				c1-3.7,2.3-8.4,4.1-13.9c1.7-5.5,3.6-11.5,5.7-18c2.1-6.4,4.3-13.1,6.6-19.8c2.4-6.8,4.6-13.2,6.6-19.2c2.1-6,4-11.4,5.7-16.1
				C173.9,729.4,175.2,725.8,176.2,723.3z M201.1,750.1c-1.9,5.8-4.1,12.3-6.5,19.4c-2.4,7.1-4.6,14.4-6.5,21.7h25.8
				c-1.9-7.5-3.9-14.8-5.9-21.9c-2-7.1-3.8-13.5-5.5-19.2H201.1z"/>
		</g>
		<g>
			<path d="M299,846.1c-6,0-10.7-1.7-14.1-5.2c-3.5-3.5-5.2-8.2-5.2-14.1V719.4c1.5-0.3,3.9-0.7,7.3-1.1s6.5-0.7,9.6-0.7
				c3.2,0,6,0.2,8.4,0.7s4.5,1.3,6.1,2.6c1.7,1.2,2.9,3,3.7,5.2c0.8,2.2,1.2,5.1,1.2,8.7v82.1h47.6c1,1.5,1.9,3.6,2.7,6.1
				c0.8,2.6,1.2,5.2,1.2,8c0,5.5-1.2,9.5-3.5,11.7c-2.4,2.3-5.5,3.4-9.4,3.4H299z"/>
		</g>
		<g>
			<path d="M474.8,719.6c1,1.5,1.8,3.6,2.6,6.1c0.8,2.6,1.1,5.2,1.1,8c0,5.4-1.1,9.2-3.4,11.5c-2.3,2.3-5.4,3.4-9.2,3.4h-43.6v23.5
				h45.5c1.1,1.5,2,3.5,2.8,6c0.8,2.5,1.1,5.1,1.1,7.9c0,5.3-1.1,9-3.4,11.3c-2.3,2.3-5.4,3.4-9.2,3.4h-36.4v43.8
				c-1.5,0.4-3.9,0.8-7.2,1.2c-3.3,0.4-6.5,0.6-9.7,0.6c-3.2,0-6-0.2-8.4-0.7c-2.4-0.5-4.5-1.3-6.1-2.6c-1.7-1.2-2.9-3-3.7-5.2
				c-0.8-2.2-1.2-5.1-1.2-8.7v-90.4c0-6,1.7-10.7,5.2-14.1c3.5-3.5,8.2-5.2,14.1-5.2H474.8z"/>
		</g>
		<g>
			<path d="M574.5,844.6c-1.5,0.4-3.9,0.8-7.2,1.2c-3.3,0.4-6.5,0.6-9.7,0.6c-3.2,0-6-0.2-8.4-0.7c-2.4-0.5-4.5-1.3-6.1-2.6
				c-1.7-1.2-2.9-3-3.7-5.2c-0.8-2.2-1.2-5.1-1.2-8.7v-97.9c0-2.9,0.8-5.2,2.4-6.8c1.6-1.6,3.8-2.9,6.5-3.8
				c4.7-1.7,10.1-2.9,16.1-3.6c6-0.8,12.1-1.1,18.2-1.1c19.1,0,33.7,4.1,43.8,12.3c10.1,8.2,15.2,19.3,15.2,33.2
				c0,6.8-1.1,12.9-3.2,18.4c-2.1,5.5-5.3,10.2-9.6,14.1c-4.2,3.9-9.6,7-16,9.1c-6.4,2.2-13.9,3.2-22.3,3.2h-14.8V844.6z
				 M585.3,777.9c5.8,0,10.3-1.3,13.4-4.1c3.1-2.7,4.7-6.8,4.7-12.4c0-5.3-1.6-9.3-4.9-12.2c-3.3-2.8-8-4.3-14.2-4.3
				c-2.2,0-4,0-5.5,0.1c-1.5,0.1-2.9,0.2-4.5,0.5v32.2H585.3z"/>
		</g>
		<g>
			<path d="M695.2,844.6c-1.5,0.4-3.9,0.8-7.2,1.2c-3.3,0.4-6.5,0.6-9.7,0.6c-3.2,0-6-0.2-8.4-0.7c-2.4-0.5-4.5-1.3-6.1-2.6
				c-1.7-1.2-2.9-3-3.7-5.2c-0.8-2.2-1.2-5.1-1.2-8.7V719.6c1.5-0.3,3.9-0.7,7.3-1.1c3.3-0.5,6.5-0.7,9.6-0.7c3.2,0,6,0.2,8.4,0.7
				c2.4,0.5,4.5,1.3,6.1,2.6c1.7,1.2,2.9,3,3.7,5.2c0.8,2.2,1.2,5.1,1.2,8.7V844.6z"/>
		</g>
		<g>
			<path d="M772.7,748.7h-51.1c-1-1.5-1.9-3.6-2.7-6.2c-0.8-2.6-1.2-5.4-1.2-8.3c0-5.4,1.2-9.3,3.6-11.6c2.4-2.4,5.6-3.5,9.5-3.5
				h77.5c6.1,5,9.1,11.6,9.1,19.9c0,3.5-0.8,6.9-2.4,10.3c-1.6,3.4-3.6,6.6-6.1,9.7l-47.2,56.9h53.2c1,1.5,1.9,3.6,2.7,6.2
				c0.8,2.6,1.2,5.4,1.2,8.3c0,5.4-1.2,9.3-3.6,11.6c-2.4,2.4-5.6,3.5-9.5,3.5h-81.9c-2.4-1.9-4.3-4.6-5.8-7.9
				c-1.5-3.3-2.3-7.1-2.3-11.4c0-3.5,0.9-7,2.7-10.6c1.8-3.6,3.9-6.9,6.4-10L772.7,748.7z"/>
		</g>
		<g>
			<path d="M890.1,748.7H839c-1-1.5-1.9-3.6-2.7-6.2c-0.8-2.6-1.2-5.4-1.2-8.3c0-5.4,1.2-9.3,3.6-11.6c2.4-2.4,5.6-3.5,9.5-3.5h77.5
				c6.1,5,9.1,11.6,9.1,19.9c0,3.5-0.8,6.9-2.4,10.3c-1.6,3.4-3.6,6.6-6.1,9.7l-47.2,56.9h53.2c1,1.5,1.9,3.6,2.7,6.2
				c0.8,2.6,1.2,5.4,1.2,8.3c0,5.4-1.2,9.3-3.6,11.6c-2.4,2.4-5.6,3.5-9.5,3.5h-81.9c-2.4-1.9-4.3-4.6-5.8-7.9
				c-1.5-3.3-2.3-7.1-2.3-11.4c0-3.5,0.9-7,2.7-10.6c1.8-3.6,3.9-6.9,6.4-10L890.1,748.7z"/>
		</g>
		<g>
			<path d="M983.8,723.3c2.4-1.4,5.9-2.7,10.7-3.9c4.8-1.2,9.6-1.9,14.4-1.9c6.9,0,13.1,1,18.4,3c5.3,2,8.8,5.2,10.3,9.5
				c2.5,7.2,5.2,15.6,8.1,25.1c2.9,9.6,5.8,19.4,8.7,29.6c2.9,10.2,5.7,20.2,8.5,30.1c2.8,9.9,5.2,18.7,7.3,26.3
				c-1.7,1.9-4.2,3.5-7.5,4.7c-3.3,1.2-7.3,1.8-11.8,1.8c-3.3,0-6.1-0.3-8.4-0.8c-2.3-0.6-4.2-1.4-5.6-2.5c-1.5-1.1-2.6-2.6-3.5-4.4
				c-0.9-1.8-1.7-3.9-2.4-6.2l-3.7-14.3h-37.6c-1.1,4.2-2.2,8.5-3.3,12.9c-1.1,4.4-2.2,8.7-3.3,12.9c-1.9,0.7-4,1.3-6.1,1.8
				s-4.7,0.7-7.8,0.7c-7.1,0-12.3-1.2-15.7-3.6c-3.4-2.4-5.1-5.8-5.1-10.1c0-1.9,0.3-3.9,0.8-5.8c0.5-1.9,1.2-4.2,1.9-6.9
				c1-3.7,2.3-8.4,4.1-13.9c1.7-5.5,3.6-11.5,5.7-18c2.1-6.4,4.3-13.1,6.6-19.8c2.4-6.8,4.6-13.2,6.6-19.2c2.1-6,4-11.4,5.7-16.1
				C981.5,729.4,982.8,725.8,983.8,723.3z M1008.7,750.1c-1.9,5.8-4.1,12.3-6.5,19.4c-2.4,7.1-4.6,14.4-6.5,21.7h25.8
				c-1.9-7.5-3.9-14.8-5.9-21.9c-2-7.1-3.8-13.5-5.5-19.2H1008.7z"/>
		</g>
	</g>
</g>
</svg>
